# xmcd
#
# Track frame offsets: 
#        150
#        27529
#        50819
#        67679
#        84637
#        102341
#        121191
#        135294
#        162524
#        181467
#        197084
#        220519
#        240432
#
# Disc length: 3544 seconds
#
# Revision: 0
# Processed by: cddbd v1.5.2PL0 Copyright (c) Steve Scherf et al.
# Submitted via: ExactAudioCopy v0.99pb5
#
DISCID=ad0dd60d
DTITLE=Krankschaft - The Flame Red Superstar
DYEAR=2009
DGENRE=Evil Rock
TTITLE0=Teen Ballad of Dino
TTITLE1=Acid Rain
TTITLE2=Ned Ludd
TTITLE3=Test Tube Conceived
TTITLE4=All the Machines Are Quiet
TTITLE5=Lord of the Hornets
TTITLE6=The Widows Song
TTITLE7=The Luminous Green Glow of the Dashboard (At Night)
TTITLE8=Picket Line
TTITLE9=Worksong
TTITLE10=Evil Rock
TTITLE11=The Greenfly and the Rose
TTITLE12=Flight 105
EXTD=
EXTT0=
EXTT1=
EXTT2=
EXTT3=
EXTT4=
EXTT5=
EXTT6=
EXTT7=
EXTT8=
EXTT9=
EXTT10=
EXTT11=
EXTT12=
PLAYORDER=
